<svg width="162" height="30" viewBox="0 0 162 30" fill="none" xmlns="http://www.w3.org/2000/svg">
    <g clip-path="url(#clip0)">
        <path d="M15.1386 30C23.4336 30 30.1581 23.2843 30.1581 15C30.1581 6.71573 23.4336 0 15.1386 0C6.84359 0 0.119141 6.71573 0.119141 15C0.119141 23.2843 6.84359 30 15.1386 30Z"
              fill="#418CCF"/>
        <path d="M38.4478 25.4399C37.817 25.4399 37.3664 25.2899 37.1261 25.0499C36.8858 24.7799 36.7656 24.3299 36.7656 23.7299V6.11988C36.7656 5.54988 36.8858 5.09988 37.1261 4.82988C37.3664 4.55988 37.817 4.40988 38.4478 4.40988L44.005 4.37988C45.6271 4.37988 47.0389 4.64988 48.2405 5.15988C49.4421 5.66988 50.4333 6.38988 51.2144 7.31988C51.9954 8.24988 52.5661 9.32988 52.9566 10.5899C53.3471 11.8499 53.5273 13.2599 53.5273 14.7899C53.5273 16.2899 53.3471 17.6999 53.0167 18.9899C52.6863 20.2799 52.1456 21.4199 51.3946 22.3799C50.6436 23.3399 49.6824 24.0899 48.5108 24.6299C47.3393 25.1699 45.9275 25.4699 44.3054 25.4699H38.4478V25.4399ZM49.7424 14.8199C49.7424 13.7999 49.6523 12.8699 49.4421 11.9999C49.2618 11.1299 48.9314 10.3799 48.4508 9.71988C48.0002 9.05988 47.3694 8.54988 46.5884 8.18988C45.8073 7.82988 44.8461 7.64988 43.6746 7.64988H40.4304V22.1399H43.7647C44.9362 22.1399 45.8975 21.9599 46.6484 21.5999C47.3994 21.2399 48.0002 20.7299 48.4508 20.0699C48.9014 19.4099 49.2318 18.6599 49.412 17.7599C49.6523 16.8599 49.7424 15.8699 49.7424 14.8199Z"
              fill="#394145"/>
        <path d="M70.231 17.4898C70.231 20.1598 69.6302 22.1998 68.3986 23.6398C67.167 25.0798 65.3346 25.7698 62.8715 25.7698C60.4383 25.7698 58.636 25.0798 57.4644 23.6998C56.2629 22.3198 55.6621 20.2798 55.6621 17.5798C55.6621 16.2598 55.8423 15.0898 56.2028 14.0698C56.5633 13.0498 57.0739 12.1798 57.7048 11.4898C58.3356 10.7998 59.1166 10.2598 60.0178 9.86981C60.9189 9.50981 61.9102 9.2998 62.9616 9.2998C65.3346 9.2998 67.167 10.0198 68.3986 11.4898C69.6302 12.9298 70.231 14.9398 70.231 17.4898ZM66.6564 17.5498C66.6564 16.8298 66.5963 16.1398 66.4761 15.5098C66.356 14.8798 66.1757 14.3098 65.9054 13.7998C65.635 13.3198 65.2746 12.9298 64.7939 12.6298C64.3133 12.3598 63.7125 12.2098 62.9916 12.2098C62.3608 12.2098 61.7901 12.3598 61.3094 12.6298C60.8288 12.8998 60.4383 13.2598 60.1079 13.7398C59.7774 14.1898 59.5371 14.7598 59.3869 15.3898C59.2367 16.0198 59.1466 16.7398 59.1466 17.4598C59.1466 19.1398 59.417 20.4298 59.9577 21.3898C60.4984 22.3498 61.4596 22.8298 62.8414 22.8298C63.5323 22.8298 64.1331 22.6798 64.6137 22.3798C65.0943 22.0798 65.4848 21.6898 65.7852 21.2098C66.0856 20.7298 66.2959 20.1598 66.4161 19.5298C66.5963 18.9298 66.6564 18.2698 66.6564 17.5498Z"
              fill="#394145"/>
        <path d="M76.0577 25.3495C75.9676 25.4095 75.8174 25.4395 75.6071 25.4395H73.2641C73.0538 25.4395 72.9337 25.4095 72.8436 25.3495C72.7534 25.2895 72.6934 25.1395 72.6934 24.9295V12.1495C72.6934 11.7895 72.7234 11.4595 72.7835 11.1895C72.8436 10.9195 72.9337 10.6495 73.0839 10.4395C73.2341 10.2295 73.4143 10.0495 73.6846 9.89953C73.955 9.74953 74.2854 9.62953 74.736 9.53953C74.8862 9.50953 75.0965 9.47953 75.3969 9.44953C75.6973 9.41953 76.0277 9.38953 76.3881 9.35953C76.7486 9.32953 77.079 9.32953 77.4395 9.29953C77.7699 9.26953 78.0703 9.26953 78.3106 9.26953C79.5422 9.26953 80.5636 9.38953 81.4347 9.62953C82.3058 9.86953 83.0568 10.2595 83.7177 10.7695C84.4085 10.3195 85.2496 9.92953 86.2109 9.68953C87.1721 9.44953 88.1935 9.26953 89.2749 9.26953C90.5065 9.26953 91.5878 9.44953 92.459 9.80953C93.3301 10.1695 94.051 10.6795 94.6218 11.3095C95.1625 11.9395 95.583 12.7195 95.8534 13.6495C96.1237 14.5495 96.2439 15.5695 96.2439 16.6195V24.8995C96.2439 25.1095 96.1838 25.2595 96.1237 25.3195C96.0336 25.3795 95.8834 25.4095 95.6431 25.4095H93.3301C93.1198 25.4095 92.9696 25.3795 92.8795 25.3195C92.7894 25.2595 92.7594 25.1095 92.7594 24.8995V17.0995C92.7594 15.4795 92.459 14.2795 91.8882 13.4995C91.3175 12.7195 90.2962 12.3295 88.8543 12.3295C88.3436 12.3295 87.7429 12.3895 87.112 12.5095C86.4812 12.6295 85.9405 12.8095 85.55 13.0495C85.7903 13.6195 85.9405 14.2195 86.0306 14.8495C86.1208 15.4795 86.1508 16.1995 86.1508 16.9495V24.8995C86.1508 25.1095 86.0907 25.2595 86.0306 25.3195C85.9706 25.3795 85.7903 25.4095 85.5801 25.4095H83.2671C83.0568 25.4095 82.9366 25.3795 82.8465 25.3195C82.7564 25.2595 82.7264 25.1095 82.7264 24.8995V16.8895C82.7264 16.1995 82.6663 15.5695 82.5461 14.9995C82.426 14.4295 82.2457 13.9495 81.9453 13.5595C81.645 13.1695 81.2545 12.8395 80.7138 12.6295C80.1731 12.4195 79.5122 12.2995 78.6711 12.2995C78.551 12.2995 78.4008 12.2995 78.1905 12.3295C77.9802 12.3295 77.7699 12.3595 77.5597 12.3595C77.3494 12.3595 77.1091 12.3895 76.9289 12.4195C76.7186 12.4495 76.5383 12.4795 76.3881 12.5095V24.8995C76.1779 25.1395 76.1478 25.2895 76.0577 25.3495Z"
              fill="#394145"/>
        <path d="M113.698 17.4898C113.698 20.1598 113.097 22.1998 111.835 23.6398C110.604 25.0798 108.771 25.7698 106.338 25.7698C103.905 25.7698 102.103 25.0798 100.931 23.6998C99.7297 22.3198 99.1289 20.2798 99.1289 17.5798C99.1289 16.2598 99.3091 15.0898 99.6696 14.0698C100.03 13.0498 100.541 12.1798 101.172 11.4898C101.802 10.7998 102.583 10.2598 103.485 9.86981C104.386 9.50981 105.377 9.2998 106.428 9.2998C108.801 9.2998 110.634 10.0198 111.835 11.4898C113.097 12.9298 113.698 14.9398 113.698 17.4898ZM110.123 17.5498C110.123 16.8298 110.063 16.1398 109.973 15.5098C109.853 14.8798 109.673 14.3098 109.402 13.7998C109.132 13.3198 108.771 12.9298 108.291 12.6298C107.81 12.3598 107.239 12.2098 106.488 12.2098C105.858 12.2098 105.287 12.3598 104.806 12.6298C104.326 12.8998 103.935 13.2598 103.605 13.7398C103.274 14.1898 103.034 14.7598 102.884 15.3898C102.734 16.0198 102.643 16.7398 102.643 17.4598C102.643 19.1398 102.914 20.4298 103.455 21.3898C103.995 22.3498 104.956 22.8298 106.338 22.8298C107.029 22.8298 107.63 22.6798 108.111 22.3798C108.591 22.0798 108.982 21.6898 109.252 21.2098C109.552 20.7298 109.763 20.1598 109.883 19.5298C110.063 18.9298 110.123 18.2698 110.123 17.5498Z"
              fill="#394145"/>
        <path d="M124.42 24.0902C124.21 24.6602 124 25.0502 123.729 25.2602C123.489 25.4702 123.099 25.5602 122.558 25.5602H120.876C120.425 25.5602 120.065 25.4702 119.824 25.3202C119.554 25.1402 119.314 24.7502 119.073 24.0902L114.207 10.0802C114.117 9.81016 114.237 9.66016 114.537 9.66016H117.241C117.451 9.66016 117.601 9.69016 117.692 9.75016C117.782 9.81016 117.842 9.90016 117.872 10.0502L120.185 17.1602L121.657 22.2602H121.837L123.309 17.1902L125.532 10.0802C125.562 9.93016 125.622 9.81016 125.682 9.75016C125.742 9.69016 125.892 9.66016 126.132 9.66016H128.776C129.076 9.66016 129.166 9.78016 129.076 10.0502L124.42 24.0902Z"
              fill="#394145"/>
        <path d="M135.025 5.55062C135.025 6.15062 134.815 6.66062 134.394 7.08062C133.973 7.50062 133.463 7.71062 132.862 7.71062C132.261 7.71062 131.751 7.50062 131.33 7.08062C130.909 6.66062 130.699 6.15062 130.699 5.55062C130.699 4.95062 130.909 4.44062 131.33 4.02062C131.751 3.60062 132.261 3.39062 132.862 3.39062C133.463 3.39062 133.973 3.60062 134.394 4.02062C134.815 4.47062 135.025 4.95062 135.025 5.55062ZM134.574 24.9006C134.574 25.1106 134.544 25.2606 134.454 25.3206C134.364 25.3806 134.214 25.4106 133.973 25.4106H131.66C131.45 25.4106 131.3 25.3806 131.21 25.3206C131.12 25.2606 131.06 25.1106 131.06 24.9006V10.2006C131.06 9.99062 131.12 9.84062 131.21 9.78062C131.3 9.72062 131.45 9.69062 131.66 9.69062H133.973C134.184 9.69062 134.364 9.72062 134.454 9.78062C134.544 9.84062 134.574 9.99062 134.574 10.2006V24.9006Z"
              fill="#394145"/>
        <path d="M147.582 25.0503C147.582 25.1403 147.492 25.2303 147.281 25.2903C146.59 25.5003 145.93 25.6503 145.239 25.6803C144.548 25.7103 144.037 25.7403 143.647 25.7403C141.994 25.7403 140.853 25.3803 140.162 24.6903C139.471 24.0003 139.141 22.9203 139.141 21.4803V12.3303H137.008C136.798 12.3303 136.647 12.3003 136.617 12.2103C136.557 12.1203 136.527 12.0003 136.527 11.8203V10.5903C136.527 10.4103 136.557 10.2903 136.617 10.2003C136.678 10.1103 136.798 10.0503 137.008 10.0203L139.291 9.51029L139.681 6.66029C139.711 6.45029 139.772 6.30029 139.892 6.21029C139.982 6.12029 140.132 6.06029 140.342 5.97029L142.085 5.37029C142.235 5.34029 142.385 5.34029 142.475 5.40029C142.565 5.46029 142.625 5.61029 142.625 5.82029V9.63029H145.839C146.05 9.63029 146.2 9.66029 146.23 9.78029C146.29 9.87029 146.32 9.99029 146.32 10.1103V11.7903C146.32 11.9703 146.29 12.0903 146.23 12.1803C146.17 12.2703 146.05 12.3003 145.839 12.3003H142.625V21.0003C142.625 21.6303 142.775 22.0803 143.076 22.3203C143.376 22.5603 143.827 22.6803 144.458 22.6803C144.578 22.6803 144.728 22.6803 144.938 22.6803C145.149 22.6803 145.329 22.6503 145.539 22.6203C145.749 22.5903 145.96 22.5903 146.17 22.5303C146.38 22.5003 146.56 22.4703 146.711 22.4403C146.921 22.4103 147.041 22.4103 147.101 22.4403C147.161 22.5003 147.191 22.5903 147.221 22.7403L147.552 24.6603C147.582 24.8403 147.582 24.9603 147.582 25.0503Z"
              fill="#394145"/>
        <path d="M162.09 23.6995C162.09 24.1795 161.909 24.5095 161.519 24.6895C161.068 24.8995 160.618 25.0495 160.077 25.1995C159.566 25.3495 159.026 25.4395 158.485 25.5295C157.944 25.6195 157.403 25.6495 156.893 25.6795C156.352 25.7095 155.841 25.7095 155.391 25.7095C154.069 25.7095 152.958 25.5895 152.087 25.3195C151.215 25.0495 150.525 24.6895 150.014 24.2395C149.503 23.7895 149.143 23.2495 148.962 22.6495C148.752 22.0495 148.662 21.3895 148.662 20.7295C148.662 20.0395 148.782 19.3495 149.023 18.6895C149.263 18.0295 149.623 17.4595 150.164 16.9795C150.675 16.4995 151.366 16.0795 152.207 15.7795C153.048 15.4795 154.039 15.3295 155.241 15.3295H158.605V14.8195C158.605 14.4295 158.575 14.0995 158.485 13.7695C158.395 13.4395 158.245 13.1695 158.034 12.9295C157.794 12.6895 157.494 12.5095 157.103 12.3595C156.713 12.2395 156.172 12.1795 155.541 12.1795C154.85 12.1795 154.129 12.2395 153.318 12.3595C152.507 12.4795 151.876 12.6295 151.366 12.7795C151.155 12.8395 150.975 12.8395 150.885 12.8095C150.795 12.7795 150.705 12.6595 150.675 12.4795L150.194 10.7995C150.104 10.4695 150.194 10.2595 150.464 10.1695C151.306 9.83953 152.237 9.62953 153.228 9.47953C154.219 9.35953 155.181 9.26953 156.052 9.26953C158.124 9.26953 159.656 9.71953 160.648 10.6495C161.609 11.5795 162.12 12.8995 162.12 14.6695V23.6995H162.09ZM158.545 18.0595H155.661C155.331 18.0595 154.97 18.0895 154.58 18.1195C154.189 18.1495 153.829 18.2695 153.468 18.4495C153.108 18.6295 152.838 18.8995 152.597 19.2295C152.357 19.5595 152.267 20.0395 152.267 20.6395C152.267 21.5095 152.567 22.1095 153.138 22.4395C153.709 22.7695 154.49 22.9495 155.451 22.9495C155.601 22.9495 155.781 22.9495 156.052 22.9495C156.292 22.9495 156.562 22.9195 156.833 22.8595C157.103 22.8295 157.403 22.7695 157.734 22.7095C158.034 22.6495 158.335 22.5595 158.605 22.4695V18.0595H158.545Z"
              fill="#394145"/>
    </g>
    <defs>
        <clipPath id="clip0">
            <rect width="162" height="30" fill="white"/>
        </clipPath>
    </defs>
</svg>
